<svg xmlns="http://www.w3.org/2000/svg" version="1.1" xmlns:xlink="http://www.w3.org/1999/xlink" xmlns:svgjs="http://svgjs.dev/svgjs" width="1000" height="1000" viewBox="0 0 1000 1000"><rect width="1000" height="1000" fill="#000000"></rect><g transform="matrix(0.7,0,0,0.7,149.57576686318578,452.2631171896285)"><svg viewBox="0 0 396 54" data-background-color="#ffffff" preserveAspectRatio="xMidYMid meet" height="136" width="1000" xmlns="http://www.w3.org/2000/svg" xmlns:xlink="http://www.w3.org/1999/xlink"><g id="tight-bounds" transform="matrix(1,0,0,1,0.23999474596917025,0.07764361092498007)"><svg viewBox="0 0 395.52 53.84471136298377" height="53.84471136298377" width="395.52"><g><svg viewBox="0 0 486.44223244597225 66.22254652310588" height="53.84471136298377" width="395.52"><g transform="matrix(1,0,0,1,90.92223244597226,1.1660023869239637)"><svg viewBox="0 0 395.52 63.89054174925795" height="63.89054174925795" width="395.52"><g id="textblocktransform"><svg viewBox="0 0 395.52 63.89054174925795" height="63.89054174925795" width="395.52" id="textblock"><g><svg viewBox="0 0 395.52 34.45950530035336" height="34.45950530035336" width="395.52"><g transform="matrix(1,0,0,1,0,0)"><svg width="395.52" viewBox="2.950000047683716 -38.599998474121094 452.7699890136719 39.44999694824219" height="34.45950530035336" data-palette-color="#3fae7d"><path d="M16.4 0.85Q8.85 0.85 2.95-1.95L2.95-1.95 2.95-8.25Q9-5.1 16.4-5.1L16.4-5.1Q19.95-5.1 21.6-6.45 23.25-7.8 23.3-10.05L23.3-10.05Q23.3-12.25 21.78-13.35 20.25-14.45 16.95-15.35L16.95-15.35 13.55-16.3Q10.65-17.1 8.5-18.23 6.35-19.35 4.9-21.53 3.45-23.7 3.45-27.15L3.45-27.15Q3.45-32.75 6.8-35.68 10.15-38.6 16.25-38.6L16.25-38.6Q19.9-38.6 22.68-37.93 25.45-37.25 28.35-35.9L28.35-35.9 28.35-29.8Q22.9-32.65 16.25-32.65L16.25-32.65Q10.35-32.65 10.35-27.7L10.35-27.7Q10.4-25.5 11.73-24.45 13.05-23.4 16.3-22.55L16.3-22.55 19.75-21.6Q22.9-20.75 25.1-19.55 27.3-18.35 28.75-16.13 30.2-13.9 30.2-10.35L30.2-10.35Q30.15-5.15 26.48-2.15 22.8 0.85 16.4 0.85L16.4 0.85ZM63.2 0L59.85-9.35 44.6-9.35 41.25 0 34.25 0 48-38.35 56.4-38.35 70.2 0 63.2 0ZM46.75-15.4L57.7-15.4 52.2-30.8 46.75-15.4ZM102.35-37.9L102.35-31.85 91.45-31.85 91.45 0 84.55 0 84.55-31.85 73.65-31.85 73.65-37.9 102.35-37.9ZM139.24-37.9L125.79-14.65 125.79 0 118.99 0 118.99-14.65 105.59-37.9 112.59-37.9 122.39-20.6 132.24-37.9 139.24-37.9ZM170.84 0L167.49-9.35 152.24-9.35 148.89 0 141.89 0 155.64-38.35 164.04-38.35 177.84 0 170.84 0ZM154.39-15.4L165.34-15.4 159.84-30.8 154.39-15.4ZM211.84 0.85Q202.29 0.85 197.44-4.45 192.59-9.75 192.59-18.85L192.59-18.85Q192.59-24.45 194.74-28.93 196.89-33.4 201.21-36 205.54-38.6 211.84-38.6L211.84-38.6Q214.49-38.6 216.56-38.18 218.64-37.75 221.04-36.75L221.04-36.75 221.04-30.6Q216.94-32.65 211.99-32.65L211.99-32.65Q208.24-32.65 205.44-30.88 202.64-29.1 201.11-25.98 199.59-22.85 199.59-18.9L199.59-18.9Q199.64-12.6 202.84-8.85 206.04-5.1 211.84-5.1L211.84-5.1Q214.39-5.1 216.81-5.83 219.24-6.55 221.94-7.95L221.94-7.95 224.04-2.2Q221.14-0.7 217.94 0.08 214.74 0.85 211.84 0.85L211.84 0.85ZM254.38-37.9L261.33-37.9 261.33 0 254.38 0 254.38-16.05 237.38-16.05 237.38 0 230.43 0 230.43-37.9 237.38-37.9 237.38-22.05 254.38-22.05 254.38-37.9ZM270.63 0L270.63-37.9 277.58-37.9 277.58 0 270.63 0ZM308.53 0L299.63-14.85 293.83-14.85 293.83 0 286.88 0 286.88-37.9 301.23-37.9Q314.63-37.9 314.63-26.35L314.63-26.35Q314.63-22.05 312.63-19.3 310.63-16.55 306.68-15.5L306.68-15.5 316.28 0 308.53 0ZM293.83-31.95L293.83-20.8 301.23-20.8Q307.58-20.8 307.58-26.5L307.58-26.5Q307.58-29.35 306-30.65 304.43-31.95 301.23-31.95L301.23-31.95 293.83-31.95ZM348.78 0L345.43-9.35 330.18-9.35 326.82 0 319.82 0 333.57-38.35 341.98-38.35 355.78 0 348.78 0ZM332.32-15.4L343.28-15.4 337.78-30.8 332.32-15.4ZM387.92-37.9L387.92-31.85 377.02-31.85 377.02 0 370.12 0 370.12-31.85 359.22-31.85 359.22-37.9 387.92-37.9ZM401.52-6.05L416.37-6.05 416.37 0 394.57 0 394.57-37.9 401.52-37.9 401.52-6.05ZM448.72 0L445.37-9.35 430.12-9.35 426.77 0 419.77 0 433.52-38.35 441.92-38.35 455.72 0 448.72 0ZM432.27-15.4L443.22-15.4 437.72-30.8 432.27-15.4Z" opacity="1" transform="matrix(1,0,0,1,0,0)" fill="#ffffff" class="wordmark-text-0" data-fill-palette-color="primary" id="text-0"></path></svg></g></svg></g><g transform="matrix(1,0,0,1,0,42.59456747363957)"><svg viewBox="0 0 395.52 21.295974275618374" height="21.295974275618374" width="395.52"><g transform="matrix(1,0,0,1,0,0)"><svg width="395.52" viewBox="1.6500000953674316 -35.650001525878906 669.5399780273438 36.05000305175781" height="21.295974275618374" data-palette-color="#17aae3"><path d="M39.25-5.75L49.35-35.25 53.35-35.25 41.05 0 37.55 0 27.5-28.85 17.45 0 14 0 1.65-35.25 5.8-35.25 15.8-5.8 26.05-35.25 29.15-35.2 39.25-5.75ZM102.88 0L80.58 0 80.58-35.25 102.88-35.25 102.88-31.85 84.63-31.85 84.63-19.6 101.88-19.6 101.88-16.2 84.63-16.2 84.63-3.4 102.88-3.4 102.88 0ZM150.86-18.1Q153.91-17.3 155.59-15.1 157.26-12.9 157.26-9.6L157.26-9.6Q157.26-4.95 154.21-2.48 151.16 0 145.56 0L145.56 0 130.86 0 130.86-35.25 145.01-35.25Q150.46-35.25 153.46-32.85 156.46-30.45 156.46-26.05L156.46-26.05Q156.46-23.2 154.99-21.15 153.51-19.1 150.86-18.1L150.86-18.1ZM134.91-31.85L134.91-19.6 144.41-19.6Q148.36-19.6 150.39-21.2 152.41-22.8 152.41-25.85L152.41-25.85Q152.41-31.85 144.41-31.85L144.41-31.85 134.91-31.85ZM145.16-3.4Q149.31-3.4 151.29-4.93 153.26-6.45 153.26-9.7L153.26-9.7Q153.26-16.2 145.16-16.2L145.16-16.2 134.91-16.2 134.91-3.4 145.16-3.4ZM219.83 0L219.83-35.25 231.68-35.25Q240.13-35.25 244.75-30.68 249.38-26.1 249.38-17.65L249.38-17.65Q249.38-9.2 244.75-4.6 240.13 0 231.68 0L231.68 0 219.83 0ZM223.93-3.5L231.43-3.5Q245.13-3.5 245.13-17.65L245.13-17.65Q245.13-31.75 231.43-31.75L231.43-31.75 223.93-31.75 223.93-3.5ZM300.26 0L277.96 0 277.96-35.25 300.26-35.25 300.26-31.85 282.01-31.85 282.01-19.6 299.26-19.6 299.26-16.2 282.01-16.2 282.01-3.4 300.26-3.4 300.26 0ZM340.89-5.15L353.84-35.25 358.04-35.25 342.64 0 339.09 0 323.69-35.25 327.99-35.25 340.89-5.15ZM405.98 0L383.68 0 383.68-35.25 405.98-35.25 405.98-31.85 387.73-31.85 387.73-19.6 404.98-19.6 404.98-16.2 387.73-16.2 387.73-3.4 405.98-3.4 405.98 0ZM455.71 0L433.96 0 433.96-35.25 438.06-35.25 438.06-3.5 455.71-3.5 455.71 0ZM495.09 0.4Q490.19 0.4 486.57-1.8 482.94-4 480.99-8.05 479.04-12.1 479.04-17.6L479.04-17.6Q479.04-23.15 480.97-27.23 482.89-31.3 486.52-33.48 490.14-35.65 495.09-35.65L495.09-35.65Q500.04-35.65 503.67-33.48 507.29-31.3 509.22-27.23 511.14-23.15 511.14-17.65L511.14-17.65Q511.14-12.15 509.19-8.08 507.24-4 503.62-1.8 499.99 0.4 495.09 0.4L495.09 0.4ZM495.09-3.1Q500.69-3.1 503.82-6.88 506.94-10.65 506.94-17.65L506.94-17.65Q506.94-24.65 503.84-28.4 500.74-32.15 495.09-32.15L495.09-32.15Q489.49-32.15 486.37-28.38 483.24-24.6 483.24-17.65L483.24-17.65Q483.24-10.7 486.37-6.9 489.49-3.1 495.09-3.1L495.09-3.1ZM539.72 0L539.72-35.25 553.67-35.25Q559.22-35.25 562.3-32.55 565.37-29.85 565.37-24.9L565.37-24.9Q565.37-19.95 562.27-17.2 559.17-14.45 553.67-14.45L553.67-14.45 543.82-14.45 543.82 0 539.72 0ZM543.82-17.85L553.27-17.85Q561.32-17.85 561.32-24.9L561.32-24.9Q561.32-31.85 553.27-31.85L553.27-31.85 543.82-31.85 543.82-17.85ZM615.46 0L593.16 0 593.16-35.25 615.46-35.25 615.46-31.85 597.21-31.85 597.21-19.6 614.46-19.6 614.46-16.2 597.21-16.2 597.21-3.4 615.46-3.4 615.46 0ZM665.04-11.5L671.19 0 666.69 0 660.69-11.3Q659.59-13.35 658.11-14.13 656.64-14.9 654.09-14.9L654.09-14.9 647.49-14.9 647.49 0 643.44 0 643.44-35.25 657.94-35.25Q663.69-35.25 666.71-32.7 669.74-30.15 669.74-25.2L669.74-25.2Q669.74-21.1 667.41-18.57 665.09-16.05 660.79-15.4L660.79-15.4Q662.14-15 663.16-14.05 664.19-13.1 665.04-11.5L665.04-11.5ZM647.49-18.3L657.59-18.3Q661.69-18.3 663.71-20 665.74-21.7 665.74-25.15L665.74-25.15Q665.74-28.55 663.74-30.2 661.74-31.85 657.59-31.85L657.59-31.85 647.49-31.85 647.49-18.3Z" opacity="1" transform="matrix(1,0,0,1,0,0)" fill="#ffffff" class="slogan-text-1" data-fill-palette-color="secondary" id="text-1"></path></svg></g></svg></g></svg></g></svg></g><g><svg viewBox="0 0 82.78717027268604 66.22254652310588" height="66.22254652310588" width="82.78717027268604"><g><svg xmlns="http://www.w3.org/2000/svg" xmlns:xlink="http://www.w3.org/1999/xlink" version="1.1" x="0" y="0" viewBox="1.968866229057312 52.79999542236328 508.0551452636719 406.3999938964844" enable-background="new 0 0 512 512" xml:space="preserve" height="66.22254652310588" width="82.78717027268604" class="icon-icon-0" data-fill-palette-color="accent" id="icon-0"><g fill="#25a7bb" data-fill-palette-color="accent"><path d="M286.4 269.7c7.4 11.9 22.4 15.2 33.5 7.2l52.3-37.5c6.7-4.8 10.7-12.9 10.7-21.6 0-8.7-4-16.8-10.7-21.6l-52.3-37.5c-11.1-8-26.1-4.7-33.5 7.2-7.4 11.9-4.4 28.1 6.7 36l22.2 15.9-22.2 15.9C282 241.6 279 257.8 286.4 269.7z" fill="#ffffff" data-fill-palette-color="accent"></path><path d="M139.9 239.4l52.9 37.5c11.2 8 26.4 4.7 33.9-7.2 7.5-11.9 4.4-28.1-6.8-36l-22.5-15.9 22.5-15.9c11.2-8 14.2-24.1 6.8-36-7.5-11.9-22.6-15.2-33.9-7.2l-52.9 37.5c-6.8 4.8-10.9 12.9-10.9 21.6C129 226.5 133.1 234.6 139.9 239.4z" fill="#ffffff" data-fill-palette-color="accent"></path><path d="M509.5 445.8c0 0-47.8-111.1-50.3-112.3V78.2c0-14-11.4-25.4-25.4-25.4H78.2c-14 0-25.4 11.4-25.4 25.4v255.3c-2.5 1.2-50.3 112.3-50.3 112.3-2.2 6.6 2.7 13.4 9.8 13.4h487.3C506.7 459.2 511.7 452.4 509.5 445.8zM408.4 332.2H103.6V103.6h304.8V332.2z" fill="#ffffff" data-fill-palette-color="accent"></path></g></svg></g></svg></g></svg></g><defs></defs></svg><rect width="395.52" height="53.84471136298377" fill="none" stroke="none" visibility="hidden"></rect></g></svg></g></svg>